<svg width="22" height="16" viewBox="0 0 22 16" fill="none" xmlns="http://www.w3.org/2000/svg">
<path d="M4.00002 0.6C3.20002 -0.2 2.00002 -0.2 1.20002 0.6C0.400025 1.4 0.400025 2.6 1.20002 3.4L5.60003 8L1.00002 12.6C0.600025 13 0.400024 13.4 0.400024 14C0.400024 15.2 1.20002 16 2.40002 16C3.00002 16 3.40002 15.8 3.80002 15.4L9.80002 9.4C10.6 8.6 10.6 7.4 9.80002 6.6L4.00002 0.6ZM21 6.6L15 0.6C14.2 -0.2 13 -0.2 12.2 0.6C11.4 1.4 11.4 2.6 12.2 3.4L16.8 8L12.2 12.6C11.8 13 11.6 13.4 11.6 14C11.6 15.2 12.4 16 13.6 16C14.2 16 14.6 15.8 15 15.4L21 9.4C21.6 8.6 21.6 7.4 21 6.6Z" fill="white"/>
</svg>
