<svg width="54" height="54" viewBox="0 0 54 54" fill="none" xmlns="http://www.w3.org/2000/svg">
<path d="M51 24.3333H3.00004C2.2928 24.3333 1.61452 24.6143 1.11442 25.1144C0.614325 25.6145 0.333374 26.2927 0.333374 27C0.333374 27.7072 0.614325 28.3855 1.11442 28.8856C1.61452 29.3857 2.2928 29.6667 3.00004 29.6667H51C51.7073 29.6667 52.3856 29.3857 52.8857 28.8856C53.3858 28.3855 53.6667 27.7072 53.6667 27C53.6667 26.2927 53.3858 25.6145 52.8857 25.1144C52.3856 24.6143 51.7073 24.3333 51 24.3333ZM24.1467 19H28.1467C28.854 19 29.5322 18.719 30.0323 18.2189C30.5324 17.7188 30.8134 17.0406 30.8134 16.3333C30.8134 15.6261 30.5324 14.9478 30.0323 14.4477C29.5322 13.9476 28.854 13.6667 28.1467 13.6667H24.1467C23.4395 13.6667 22.7612 13.9476 22.2611 14.4477C21.761 14.9478 21.48 15.6261 21.48 16.3333C21.48 17.0406 21.761 17.7188 22.2611 18.2189C22.7612 18.719 23.4395 19 24.1467 19ZM36.1467 16.3333C36.1467 17.0406 36.4277 17.7188 36.9278 18.2189C37.4279 18.719 38.1061 19 38.8134 19H40.3334C40.8598 18.9974 41.3738 18.839 41.8103 18.5447C42.2469 18.2505 42.5867 17.8336 42.7867 17.3467C42.9909 16.861 43.0467 16.3258 42.947 15.8085C42.8474 15.2912 42.5967 14.815 42.2267 14.44L40.4667 12.7067C39.9671 12.21 39.2912 11.9312 38.5867 11.9312C37.8822 11.9312 37.2063 12.21 36.7067 12.7067C36.3123 13.1007 36.0513 13.6085 35.9604 14.1585C35.8695 14.7086 35.9533 15.2734 36.2 15.7733C36.1691 15.9585 36.1512 16.1456 36.1467 16.3333ZM26.0667 7.71999L27 6.75999L29.16 8.91999C29.6597 9.41666 30.3355 9.69544 31.04 9.69544C31.7445 9.69544 32.4204 9.41666 32.92 8.91999C33.4167 8.42036 33.6955 7.74449 33.6955 7.03999C33.6955 6.33549 33.4167 5.65962 32.92 5.15999L30.0934 2.33332C29.8942 2.12456 29.6594 1.95299 29.4 1.82666C29.2147 1.44265 28.9399 1.1087 28.5988 0.852817C28.2577 0.596936 27.8602 0.426588 27.4396 0.356062C27.0191 0.285536 26.5878 0.316889 26.1818 0.447491C25.7759 0.578093 25.4072 0.804136 25.1067 1.10666L22.28 3.93332C21.7779 4.43547 21.4958 5.11652 21.4958 5.82666C21.4958 6.5368 21.7779 7.21785 22.28 7.71999C22.7822 8.22213 23.4632 8.50424 24.1734 8.50424C24.8835 8.50424 25.5646 8.22213 26.0667 7.71999ZM40.3334 35H13.6667C13.1402 35.0026 12.6263 35.161 12.1897 35.4552C11.7532 35.7495 11.4134 36.1663 11.2134 36.6533C11.0092 37.139 10.9534 37.6742 11.053 38.1915C11.1527 38.7088 11.4034 39.185 11.7734 39.56L25.1067 52.8933C25.3546 53.1433 25.6495 53.3417 25.9745 53.477C26.2995 53.6124 26.648 53.6821 27 53.6821C27.3521 53.6821 27.7006 53.6124 28.0256 53.477C28.3505 53.3417 28.6455 53.1433 28.8934 52.8933L42.2267 39.56C42.5967 39.185 42.8474 38.7088 42.947 38.1915C43.0467 37.6742 42.9909 37.139 42.7867 36.6533C42.5867 36.1663 42.2469 35.7495 41.8103 35.4552C41.3738 35.161 40.8598 35.0026 40.3334 35ZM27 47.24L20.0934 40.3333H33.9067L27 47.24ZM13.8 19C14.151 19.002 14.4989 18.9348 14.8238 18.802C15.1487 18.6693 15.4442 18.4738 15.6934 18.2267L18.52 15.2667C19.0222 14.7645 19.3043 14.0835 19.3043 13.3733C19.3043 12.6632 19.0222 11.9821 18.52 11.48C18.0179 10.9778 17.3368 10.6957 16.6267 10.6957C15.9166 10.6957 15.2355 10.9778 14.7334 11.48L11.9067 14.3067C11.6568 14.5546 11.4584 14.8495 11.323 15.1745C11.1876 15.4994 11.1179 15.848 11.1179 16.2C11.1179 16.552 11.1876 16.9006 11.323 17.2255C11.4584 17.5505 11.6568 17.8454 11.9067 18.0933C12.1445 18.3647 12.435 18.585 12.7604 18.7408C13.0858 18.8966 13.4395 18.9848 13.8 19Z" fill="white"/>
</svg>
