<svg width="168" height="35" viewBox="0 0 168 35" fill="none" xmlns="http://www.w3.org/2000/svg">
<mask id="mask0_28_120" style="mask-type:luminance" maskUnits="userSpaceOnUse" x="0" y="0" width="168" height="35">
<path d="M167.712 0H0V34.8174H167.712V0Z" fill="white"/>
</mask>
<g mask="url(#mask0_28_120)">
<path d="M148.446 6.43182L144.719 8.58407V12.0503H141.801V15.2649H144.719V21.802C144.719 25.0436 146.583 26.7458 149.554 26.7458C150.621 26.7458 151.395 26.7458 152.339 26.7458H152.444H152.58V23.2996H152.444C151.904 23.2996 151.255 23.2874 150.553 23.2874C149.203 23.2874 148.446 22.6127 148.446 20.9379V15.2647H152.58V12.0505H148.446V7.78187V6.43182ZM138.582 6.43212C138.288 6.43211 137.998 6.48984 137.727 6.60213C137.456 6.71442 137.21 6.87909 137.002 7.08659C136.794 7.29409 136.629 7.54037 136.517 7.81149C136.405 8.08261 136.347 8.37321 136.348 8.66669C136.347 8.96016 136.405 9.25063 136.517 9.52178C136.629 9.79285 136.794 10.0393 137.002 10.2468C137.21 10.4543 137.456 10.6188 137.727 10.7311C137.998 10.8435 138.288 10.9012 138.582 10.9012C139.175 10.9012 139.743 10.6657 140.162 10.2467C140.581 9.82759 140.816 9.25931 140.816 8.66669C140.816 8.07408 140.581 7.50574 140.162 7.08668C139.743 6.66762 139.175 6.43217 138.582 6.43212ZM42.4236 7.08034V26.4763H46.1785V19.7768L51.6892 26.4763H56.4708L49.7982 18.9664L55.7683 12.0509H51.4462L46.1785 18.1559V7.08034H42.4236ZM106.574 7.08034V26.4763H110.032V24.396C111.14 25.9088 112.706 26.7462 114.57 26.7462C118.46 26.7462 120.972 23.4775 120.972 19.2633C120.972 14.9953 118.46 11.7807 114.57 11.7807C112.842 11.7807 111.382 12.5103 110.329 13.915V7.08034H106.574ZM62.8104 11.7807C58.6503 11.7807 55.6519 14.9143 55.6519 19.2095C55.6519 23.7207 58.5424 26.7192 62.8645 26.7192C66.3763 26.7192 68.8884 24.8553 69.6987 21.5866H65.9711C65.5388 23.0184 64.4311 23.8289 62.7833 23.8289C60.8654 23.8289 59.731 22.5323 59.4877 20.1821H69.7259C70.4012 15.4818 67.3757 11.7807 62.8104 11.7807ZM97.8572 11.7807C93.6969 11.7807 90.6989 14.9143 90.6989 19.2095C90.6989 23.7207 93.589 26.7192 97.9115 26.7192C101.423 26.7192 103.935 24.8553 104.746 21.5866H101.017C100.586 23.0184 99.4779 23.8289 97.8304 23.8289C95.9126 23.8289 94.7772 22.5323 94.5345 20.1821H104.773C105.448 15.4818 102.422 11.7807 97.8572 11.7807ZM128.231 11.7807C124.638 11.7807 122.341 13.6448 122.341 16.319C122.341 18.5612 123.909 19.9928 126.502 20.452L129.095 20.9385C130.473 21.2086 131.067 21.5868 131.067 22.5053C131.067 23.5318 129.96 23.9909 128.501 23.9909C126.637 23.9909 125.367 23.0455 125.34 21.5598H121.747C122.044 24.7744 124.341 26.7462 128.447 26.7462C132.553 26.7462 134.849 24.8825 134.849 21.857C134.849 19.7769 133.417 18.4802 130.607 17.94L127.825 17.4265C126.529 17.1835 125.934 16.8324 125.934 15.968C125.934 15.0495 126.853 14.5363 128.231 14.5363C129.824 14.5363 130.878 15.4006 131.013 16.8053H134.606C134.336 13.6987 131.851 11.7807 128.231 11.7807ZM160.702 11.7807C156.542 11.7807 153.543 14.9143 153.543 19.2095C153.543 23.7207 156.434 26.7192 160.756 26.7192C164.267 26.7192 166.78 24.8553 167.59 21.5866H163.862C163.431 23.0184 162.323 23.8289 160.675 23.8289C158.758 23.8289 157.623 22.5323 157.379 20.1821H167.618C168.293 15.4818 165.267 11.7807 160.702 11.7807ZM69.6906 12.0509L73.7964 26.4763H77.5513L80.2529 17.1023L82.9814 26.4763H86.7091L90.8417 12.0509H87.1409L84.7101 21.1814L82.1439 12.0509H78.4428L75.7955 21.1814L73.3373 12.0509H69.6906ZM136.705 12.0509V26.4763H140.459V12.0509H136.705ZM62.7294 14.5363C64.5123 14.5363 65.6468 15.8058 65.7549 17.8048H59.5416C59.8659 15.6707 60.9735 14.5363 62.7294 14.5363ZM97.776 14.5363C99.5591 14.5363 100.694 15.8058 100.802 17.8048H94.5889C94.9127 15.6707 96.0205 14.5363 97.776 14.5363ZM160.621 14.5363C162.404 14.5363 163.539 15.8058 163.647 17.8048H157.433C157.758 15.6707 158.866 14.5363 160.621 14.5363ZM113.733 15.1034C115.569 15.1034 117.11 16.508 117.11 19.2633C117.11 21.9647 115.569 23.3966 113.733 23.3966C111.869 23.3966 110.356 21.9378 110.356 19.2095C110.356 16.481 111.923 15.1034 113.733 15.1034Z" fill="white"/>
<path d="M19.3774 0.000717682C18.7174 0.0128916 18.0426 0.188505 17.4047 0.556806L2.05658 9.41805C0.000127322 10.6054 -0.514167 13.1284 0.514082 14.9835C0.841867 15.5746 1.32791 16.0967 1.9688 16.4874L5.71469 18.65C5.22146 16.1897 6.21107 13.4737 8.68828 12.0436L16.3822 7.60149L23.5224 3.47882C23.2041 1.39222 21.3573 -0.0366968 19.3774 0.000717682ZM27.1959 4.42912C26.5201 4.41695 25.8249 4.57744 25.1661 4.93706L21.4202 7.09979C23.7975 7.90278 25.6548 10.1178 25.6548 12.9783V21.8622V30.1074C27.6211 30.875 29.782 29.9901 30.7396 28.2567C31.0589 27.6789 31.2443 27.0068 31.2443 26.2702L31.2444 8.54761C31.2444 6.17306 29.3165 4.46621 27.1959 4.42912ZM1.5285 18.6397C-0.119433 19.9587 -0.433525 22.2726 0.588808 23.9686C0.929559 24.534 1.41888 25.0307 2.05677 25.399L17.405 34.2601C19.4615 35.4473 21.9036 34.6314 22.996 32.8134C23.3441 32.2341 23.5531 31.5518 23.5711 30.8014L23.5709 26.4762C21.6869 28.1336 18.8399 28.6344 16.3626 27.2042L8.66896 22.7621L1.5285 18.6397Z" fill="white"/>
</g>
</svg>
