<svg width="122" height="30" viewBox="0 0 122 30" fill="none" xmlns="http://www.w3.org/2000/svg">
<mask id="mask0_28_108" style="mask-type:luminance" maskUnits="userSpaceOnUse" x="0" y="0" width="122" height="30">
<path d="M121.193 0H0V30H121.193V0Z" fill="white"/>
</mask>
<g mask="url(#mask0_28_108)">
<path d="M15.5449 5.39142L10.3501 14.9967L12.9466 19.7985H7.79133L5.19832 15.0052H5.18979L2.59857 19.7966L2.60395 19.8069V19.8117L5.20045 24.6124H5.20587H10.3989L10.3935 24.6031H10.3989H15.5507H20.7457H25.929L28.5265 19.8014L31.1327 15.0024L25.9378 5.39717H15.5481L15.5449 5.39142ZM18.1432 10.195H23.3302H23.3374L25.9348 14.9976L25.9294 15.0043L25.924 14.9959L23.3362 19.8005H18.1414L15.544 14.9977L18.1432 10.195Z" fill="white"/>
<path d="M5.18504 5.38955L2.58671 10.1941L2.59209 10.2035L0 14.9958L2.59832 19.7966L5.19483 14.9958V14.9939L7.79227 10.1913H7.78243L10.379 5.38953L5.18504 5.38955Z" fill="white"/>
<path d="M36.3269 14.9916L31.1428 24.5966H36.3271L38.9254 19.7931L36.3269 14.9916Z" fill="white"/>
<path d="M31.1478 5.38938L33.7443 10.1912H33.7345L36.3319 14.9938L38.9284 19.7955L41.5268 14.9947L38.9346 10.2005L38.939 10.1919L36.3408 5.38739H31.1485L31.1478 5.38938Z" fill="white"/>
<path d="M79.506 6.66669C77.7916 6.66669 76.2812 7.01466 74.9755 7.71182C73.669 8.38722 72.6583 9.35707 71.9441 10.6207C71.25 11.8625 70.9037 13.3224 70.9037 15C70.9037 16.7212 71.2601 18.2137 71.9747 19.4774C72.6889 20.7193 73.6896 21.6774 74.9755 22.3528C76.2812 23.0064 77.7916 23.3333 79.506 23.3333C81.2203 23.3333 82.7201 23.0064 84.0059 22.3528C85.3117 21.6774 86.3226 20.7193 87.0373 19.4774C87.7515 18.2137 88.1081 16.7212 88.1081 15C88.1081 13.3224 87.7515 11.8625 87.0373 10.6207C86.3226 9.35707 85.3117 8.38722 84.0059 7.71182C82.7201 7.01466 81.2203 6.66669 79.506 6.66669ZM79.506 9.90186C80.9343 9.90186 82.0571 10.3591 82.8736 11.2742C83.7102 12.1674 84.1285 13.4095 84.1285 15C84.1285 16.5034 83.7102 17.7337 82.8736 18.6923C82.0365 19.6293 80.9143 20.0981 79.506 20.0981C78.0977 20.0981 76.975 19.6293 76.1384 18.6923C75.3012 17.7337 74.8835 16.5034 74.8835 15C74.8835 13.4095 75.2912 12.1674 76.1077 11.2742C76.9442 10.3591 78.0772 9.90186 79.506 9.90186Z" fill="white"/>
<path d="M58.2896 6.66669C56.7996 6.66669 55.463 7.01466 54.2791 7.71182C53.1159 8.38722 52.1971 9.35707 51.5237 10.6207C50.8707 11.8625 50.5438 13.3115 50.5438 14.9673C50.5438 16.6013 50.8707 18.0502 51.5237 19.3139C52.1971 20.5775 53.1159 21.5684 54.2791 22.2874C55.463 22.9846 56.7996 23.3333 58.2896 23.3333C59.4123 23.3333 60.463 23.1703 61.4427 22.8435C62.4429 22.4948 63.2897 21.9823 63.9838 21.3068V30H67.841V7.15655H64.1056V9.05217C63.3096 8.24604 62.4431 7.64682 61.504 7.25466C60.5651 6.86249 59.4936 6.66669 58.2896 6.66669ZM59.2379 9.90186C60.34 9.90186 61.3202 10.2179 62.1774 10.8497C63.0346 11.4815 63.637 12.3312 63.9838 13.3987V16.5685C63.6571 17.6361 63.0551 18.4967 62.1774 19.1503C61.3202 19.7821 60.34 20.0981 59.2379 20.0981C57.8503 20.0981 56.7077 19.6183 55.8097 18.6596C54.912 17.701 54.4622 16.4706 54.4622 14.9673C54.4622 13.464 54.912 12.2437 55.8097 11.3069C56.7077 10.37 57.8503 9.90186 59.2379 9.90186Z" fill="white"/>
<path d="M111.068 7.15649H114.804V9.67292C115.396 8.8232 116.232 8.19139 117.314 7.77743C118.416 7.36346 119.671 7.15649 121.08 7.15649V10.2938C119.589 10.2938 118.293 10.5443 117.192 11.0454C116.109 11.5248 115.354 12.2873 114.926 13.3331V22.8431H111.068V7.15649Z" fill="white"/>
<path d="M97.843 23.3333C96.3529 23.3333 95.0156 22.9853 93.8319 22.2882C92.6694 21.6128 91.7499 20.643 91.0763 19.3793C90.4237 18.1374 90.0971 16.6885 90.0971 15.0327C90.0971 13.3987 90.4237 11.9498 91.0763 10.6862C91.7499 9.42244 92.6694 8.43159 93.8319 7.71262C95.0156 7.01545 96.3529 6.66668 97.843 6.66668C98.9652 6.66668 100.017 6.82974 100.995 7.15655C101.996 7.50516 102.842 8.01775 103.537 8.69316V0H107.394V22.8435H103.658V20.9478C102.863 21.7539 101.996 22.3532 101.057 22.7453C100.118 23.1375 99.0472 23.3333 97.843 23.3333ZM98.7911 20.0981C99.8937 20.0981 100.873 19.7821 101.731 19.1503C102.588 18.5185 103.191 17.6688 103.537 16.6013V13.4315C103.21 12.3638 102.608 11.5033 101.731 10.8497C100.873 10.2179 99.8937 9.90188 98.7911 9.90188C97.4034 9.90188 96.2607 10.3817 95.3629 11.3404C94.4652 12.299 94.0154 13.5294 94.0154 15.0327C94.0154 16.536 94.4652 17.7563 95.3629 18.6932C96.2607 19.63 97.4034 20.0981 98.7911 20.0981Z" fill="white"/>
</g>
</svg>
