<svg width="20" height="20" viewBox="0 0 20 20" fill="none" xmlns="http://www.w3.org/2000/svg">
<path fill-rule="evenodd" clip-rule="evenodd" d="M20 10C20 15.5228 15.5228 20 10 20C4.47715 20 0 15.5228 0 10C0 4.47715 4.47715 0 10 0C15.5228 0 20 4.47715 20 10ZM10.3583 7.38245C9.38569 7.78701 7.44176 8.62434 4.52656 9.89445C4.05318 10.0827 3.8052 10.2669 3.78262 10.4469C3.74447 10.7513 4.12558 10.8711 4.64454 11.0343C4.71513 11.0565 4.78828 11.0795 4.86326 11.1039C5.37385 11.2698 6.06067 11.464 6.41772 11.4717C6.7416 11.4787 7.10309 11.3452 7.50218 11.0711C10.2259 9.23251 11.632 8.30319 11.7202 8.28315C11.7825 8.26902 11.8688 8.25125 11.9273 8.30322C11.9858 8.35519 11.98 8.45361 11.9738 8.48002C11.9361 8.64096 10.4401 10.0318 9.66592 10.7515C9.42457 10.9759 9.25338 11.135 9.21838 11.1714C9.13998 11.2528 9.06009 11.3298 8.9833 11.4039C8.50895 11.8611 8.15324 12.204 9.00299 12.764C9.41134 13.0331 9.7381 13.2556 10.0641 13.4776C10.4201 13.7201 10.7752 13.9619 11.2347 14.2631C11.3517 14.3398 11.4635 14.4195 11.5724 14.4971C11.9867 14.7925 12.3589 15.0579 12.8188 15.0155C13.086 14.991 13.362 14.7397 13.5022 13.9903C13.8335 12.2193 14.4847 8.38206 14.6352 6.80082C14.6483 6.66229 14.6318 6.48499 14.6184 6.40716C14.6051 6.32932 14.5773 6.21843 14.4761 6.13634C14.3563 6.03912 14.1713 6.01862 14.0886 6.02008C13.7125 6.0267 13.1354 6.22736 10.3583 7.38245Z" fill="white"/>
</svg>
